# xmcd
#
# Track frame offsets: 
#        150
#        15264
#        27387
#        41903
#        64297
#        77297
#        99687
#        117224
#        130616
#        141772
#        162714
#        175580
#        187967
#        205873
#        223111
#        238814
#        261548
#        278163
#        294053
#        311126
#        322226
#        337634
#
# Disc length: 4718 seconds
#
# Revision: 9
# Processed by: cddbd v1.5.2PL0 Copyright (c) Steve Scherf et al.
# Submitted via: ExactAudioCopy v1.0b3
#
DISCID=42126c16
DTITLE=Parsons, Gram - Sacred Hearts and Fallen Angels - The Gram Parson
DTITLE=s Anthology [Disc 2]
DYEAR=2001
DGENRE=Country
TTITLE0=To Love Somebody
TTITLE1=Still Feeling Blue
TTITLE2=We'll Sweep Out The Ashes In The Morning
TTITLE3=A Song For You
TTITLE4=Streets Of Baltimore
TTITLE5=She
TTITLE6=The New Soft Shoe
TTITLE7=Kiss The Children
TTITLE8=How Much I've Lied
TTITLE9=Drug Store Truck Drivin' Man
TTITLE10=That's All It Took
TTITLE11=California Cotton Fields
TTITLE12=Return Of The Grievous Angel (Remix)
TTITLE13=Hearts On Fire
TTITLE14=Brass Buttons
TTITLE15=$1000 Wedding
TTITLE16=Love Hurts
TTITLE17=Ooh Las Vegas
TTITLE18=In My Hour Of Darkness
TTITLE19=Brand New Heartache
TTITLE20=Sleepless Nights
TTITLE21=The Angels Rejoiced Last Night
EXTD=YEAR: 2001 ID3G:   2 YEAR: 2001 ID3G:   2
EXTT0=
EXTT1=
EXTT2=
EXTT3=
EXTT4=
EXTT5=
EXTT6=
EXTT7=
EXTT8=
EXTT9=
EXTT10=
EXTT11=
EXTT12=
EXTT13=
EXTT14=
EXTT15=
EXTT16=
EXTT17=
EXTT18=
EXTT19=
EXTT20=
EXTT21=
PLAYORDER=
